<svg width="40" height="40" viewBox="0 0 40 40" fill="none" xmlns="http://www.w3.org/2000/svg">
<path d="M3.3335 26.8332C4.93498 27.1598 6.40507 27.9501 7.5608 29.1059C8.71653 30.2616 9.50688 31.7317 9.8335 33.3332M3.3335 20.0832C6.71815 20.4596 9.87395 21.9766 12.282 24.3846C14.6901 26.7927 16.2071 29.9485 16.5835 33.3332M3.3335 13.3332V9.99984C3.3335 9.11578 3.68469 8.26794 4.30981 7.64281C4.93493 7.01769 5.78277 6.6665 6.66683 6.6665H33.3335C34.2176 6.6665 35.0654 7.01769 35.6905 7.64281C36.3156 8.26794 36.6668 9.11578 36.6668 9.99984V29.9998C36.6668 30.8839 36.3156 31.7317 35.6905 32.3569C35.0654 32.982 34.2176 33.3332 33.3335 33.3332H23.3335M3.3335 33.3332H3.35016" stroke="#F3F3F3" stroke-width="3" stroke-linecap="round" stroke-linejoin="round"/>
</svg>
