<svg width="40" height="40" viewBox="0 0 40 40" fill="none" xmlns="http://www.w3.org/2000/svg">
<path d="M8.21683 8.21683L15.2835 15.2835M24.7168 24.7168L31.7835 31.7835M31.7835 8.21683L24.7168 15.2835L30.6002 9.40016M8.21683 31.7835L15.2835 24.7168M36.6668 20.0002C36.6668 29.2049 29.2049 36.6668 20.0002 36.6668C10.7954 36.6668 3.3335 29.2049 3.3335 20.0002C3.3335 10.7954 10.7954 3.3335 20.0002 3.3335C29.2049 3.3335 36.6668 10.7954 36.6668 20.0002ZM26.6668 20.0002C26.6668 23.6821 23.6821 26.6668 20.0002 26.6668C16.3183 26.6668 13.3335 23.6821 13.3335 20.0002C13.3335 16.3183 16.3183 13.3335 20.0002 13.3335C23.6821 13.3335 26.6668 16.3183 26.6668 20.0002Z" stroke="#F3F3F3" stroke-width="3" stroke-linecap="round" stroke-linejoin="round"/>
</svg>
