<svg width="40" height="40" viewBox="0 0 40 40" fill="none" xmlns="http://www.w3.org/2000/svg">
<path d="M26.6668 13.333C29.319 13.333 31.8625 14.3866 33.7379 16.2619C35.6133 18.1373 36.6668 20.6808 36.6668 23.333V34.9997H30.0002V23.333C30.0002 22.449 29.649 21.6011 29.0238 20.976C28.3987 20.3509 27.5509 19.9997 26.6668 19.9997C25.7828 19.9997 24.9349 20.3509 24.3098 20.976C23.6847 21.6011 23.3335 22.449 23.3335 23.333V34.9997H16.6668V23.333C16.6668 20.6808 17.7204 18.1373 19.5958 16.2619C21.4711 14.3866 24.0147 13.333 26.6668 13.333Z" stroke="#E9D5FF" stroke-width="3.5" stroke-linecap="round" stroke-linejoin="round"/>
<path d="M10.0002 14.9997H3.3335V34.9997H10.0002V14.9997Z" stroke="#E9D5FF" stroke-width="3.5" stroke-linecap="round" stroke-linejoin="round"/>
<path d="M6.66683 9.99967C8.50778 9.99967 10.0002 8.50729 10.0002 6.66634C10.0002 4.82539 8.50778 3.33301 6.66683 3.33301C4.82588 3.33301 3.3335 4.82539 3.3335 6.66634C3.3335 8.50729 4.82588 9.99967 6.66683 9.99967Z" stroke="#E9D5FF" stroke-width="3.5" stroke-linecap="round" stroke-linejoin="round"/>
</svg>
