<svg width="40" height="40" viewBox="0 0 40 40" fill="none" xmlns="http://www.w3.org/2000/svg">
<g clip-path="url(#clip0_2510_292)">
<path d="M38.3332 5.00016C36.7371 6.12595 34.97 6.98701 33.0998 7.55016C32.0961 6.39601 30.7621 5.57798 29.2782 5.2067C27.7944 4.83543 26.2323 4.92882 24.8033 5.47425C23.3743 6.01968 22.1472 6.99083 21.2881 8.25635C20.429 9.52188 19.9793 11.0207 19.9998 12.5502V14.2168C17.0709 14.2928 14.1686 13.6432 11.5515 12.3259C8.93441 11.0086 6.6837 9.06455 4.99984 6.66682C4.99984 6.66682 -1.66683 21.6668 13.3332 28.3335C9.90072 30.6634 5.81177 31.8317 1.6665 31.6668C16.6665 40.0002 34.9998 31.6668 34.9998 12.5002C34.9983 12.0359 34.9537 11.5728 34.8665 11.1168C36.5675 9.43931 37.7679 7.32135 38.3332 5.00016Z" stroke="#E9D5FF" stroke-width="3.5" stroke-linecap="round" stroke-linejoin="round"/>
</g>
<defs>
<clipPath id="clip0_2510_292">
<rect width="40" height="40" fill="white"/>
</clipPath>
</defs>
</svg>
