<svg width="40" height="40" viewBox="0 0 40 40" fill="none" xmlns="http://www.w3.org/2000/svg">
<g clip-path="url(#clip0_2510_78)">
<path d="M37.5665 10.7003C37.3685 9.90934 36.9653 9.18461 36.3976 8.59934C35.8299 8.01406 35.1177 7.58897 34.3331 7.36699C31.4665 6.66699 19.9998 6.66699 19.9998 6.66699C19.9998 6.66699 8.53315 6.66699 5.66648 7.43366C4.88189 7.65563 4.16978 8.08073 3.60206 8.666C3.03434 9.25128 2.63113 9.97601 2.43315 10.767C1.9085 13.6763 1.65187 16.6275 1.66648 19.5837C1.64778 22.5621 1.90443 25.5358 2.43315 28.467C2.65141 29.2334 3.06366 29.9306 3.63005 30.4911C4.19645 31.0517 4.89785 31.4567 5.66648 31.667C8.53315 32.4337 19.9998 32.4337 19.9998 32.4337C19.9998 32.4337 31.4665 32.4337 34.3331 31.667C35.1177 31.445 35.8299 31.0199 36.3976 30.4346C36.9653 29.8494 37.3685 29.1246 37.5665 28.3337C38.0871 25.4463 38.3437 22.5175 38.3331 19.5837C38.3519 16.6052 38.0952 13.6315 37.5665 10.7003Z" stroke="#E9D5FF" stroke-width="3.5" stroke-linecap="round" stroke-linejoin="round"/>
<path d="M16.2498 25.0337L25.8331 19.5837L16.2498 14.1337V25.0337Z" stroke="#E9D5FF" stroke-width="3.5" stroke-linecap="round" stroke-linejoin="round"/>
</g>
<defs>
<clipPath id="clip0_2510_78">
<rect width="40" height="40" fill="white"/>
</clipPath>
</defs>
</svg>
